<?xml version="1.0" encoding="utf-8"?>
<!DOCTYPE svg PUBLIC "-//W3C//DTD SVG 1.1//EN" "http://www.w3.org/Graphics/SVG/1.1/DTD/svg11.dtd">
<svg version="1.1" id="Layer_1" xmlns="http://www.w3.org/2000/svg" xmlns:xlink="http://www.w3.org/1999/xlink" x="0px" y="0px"
	 viewBox="0 0 554.24 65.6" style="enable-background:new 0 0 554.24 65.6;" xml:space="preserve">
<style type="text/css">
	.Arched_x0020_Green{fill:url(#SVGID_1_);stroke:#FFFFFF;stroke-width:0.25;stroke-miterlimit:1;}
</style>
<linearGradient id="SVGID_1_" gradientUnits="userSpaceOnUse" x1="-81" y1="329.5959" x2="-80.2929" y2="328.8889">
	<stop  offset="0" style="stop-color:#1DA238"/>
	<stop  offset="0.9831" style="stop-color:#24391D"/>
</linearGradient>
<path d="M282.06,27.21v14.8h10.32c-1.08,3.82-5.66,5.48-9.24,5.48c-7.41,0-11.73-6.48-11.73-13.38c0-7.57,4.49-14.61,12.65-14.61
	c3.66,0,6.91,1.68,8.65,4.86l17.75-6.54v9.39H282.06z M219.91,23.26c-1.5-0.83-3.08-3.17-3.08-4.91c0-2.25,1.67-4.08,4-4.08
	c1.83,0,3.41,1.83,3.41,3.66C224.24,20.26,221.82,22.18,219.91,23.26 M213.66,49.78c-3,0-5.66-1.5-5.66-4.74
	c0-2.33,2-3.66,3.75-4.83l7.91,7.91C217.65,48.95,215.99,49.78,213.66,49.78 M399.16,0.4l-4.5,10.49c-0.83,1.92-1.42,3.91-2.08,5.91
	h-0.67l-6.99-16.4h-16.43h-9.37h-13.41v34.97c0,4.91-0.17,9.24-6.23,9.24c-6.07,0-6.23-4.33-6.23-9.24V0.4h-22.78v10.86
	c-6.62-7.22-18.3-10.86-27.24-10.86c-19.72,0-34.78,12.29-34.78,32.8c0,0.05,0,0.1,0,0.15l-3.02-3.43c-2.91,3.41-5.82,7-9.64,9.49
	l-5.65-5.75c6.9-2.08,12.21-8.33,12.21-15.66c0-11.73-12.88-17.38-22.95-17.38c-10.66,0-23.16,5.15-23.16,17.54
	c0,5.08,2.58,8.41,6.17,11.74c-4.57,0.88-8.91,2.76-11.87,5.83l0.03-35.33H167.8l-0.06,65.08h22.78l0.01-8.4
	c4.71,5.81,13.07,8.28,21.3,8.28c7.57,0,13.48-1.58,19.8-5.73l5.16,5.85h26.1l-15.38-14.68l4.12-3.11
	c5.48,11.3,17.48,17.79,31.43,17.79c9.74,0,19.97-4.28,26.62-11.52c1.2-1.29,2.18-2.6,3.03-3.93c4.15,10.19,13.79,15.54,26.76,15.54
	c17.54,0,29.01-9.75,29.01-28.06V15.69l12.52,20.43v29.39h22.31V36.12L424.79,0.4H399.16z"/>
<path d="M434.1,5.13H433V1.55h-0.02l-1.28,3.57h-0.68l-1.28-3.57h-0.02v3.57h-1.11V0.45h1.79l0.95,2.7h0.02l0.95-2.7h1.79V5.13z
	 M428.17,1.55h-1.27v3.57h-1.36V1.55h-1.26v-1.1h3.88V1.55z"/>
<path d="M150.25,0.4h-6.6v18.82v13.86L124.45,0.4h-21.88l-0.01,14.11C96.34,5.76,85.68,0.64,73.65,0.64
	c-10.17,0-19.38,3.67-25.74,10.09V0.46H0v21.79l12.57-0.58l-0.06,43.84h22.78l0.06-43.8l5.52,0.26c-1.21,3.41-1.88,7.16-1.88,11.21
	c0,20.14,15.56,32.21,34.66,32.21c12.05,0,22.69-4.8,28.9-13.41l-0.01,13.53h10.74h11.06h0.03V31.53l19.25,33.98h21.79l0.03-65.11
	H150.25z M73.65,45.57c-6.89,0-11.7-4.91-11.7-12.07c0-6.66,4.48-12.24,11.7-12.24c7.22,0,11.7,5.58,11.7,12.24
	C85.36,40.66,80.54,45.57,73.65,45.57z"/>
<g>
	<g id="XMLID_3_">
		<path id="XMLID_4_" d="M476.91,17.03h3.33v3.98h-8.73V0.43h5.4V17.03z"/>
	</g>
	<path id="XMLID_6_" d="M493.51,14.75c0,2.16-0.37,3.73-1.14,4.69c-1.02,1.3-2.81,2.01-5.09,2.01c-4.17,0-6.33-2.1-6.33-6.11V5.96
		c0-3.83,2.25-5.96,6.27-5.96c2.59,0,4.69,1.02,5.61,2.71c0.46,0.87,0.68,2.07,0.68,3.67V14.75z M486.29,16.2
		c0,1.3,0.22,1.7,0.93,1.7c0.61,0,0.86-0.43,0.86-1.54V5.21c0-1.39-0.19-1.79-0.86-1.79c-0.71,0-0.93,0.43-0.93,1.88V16.2z"/>
	<path id="XMLID_9_" d="M506.96,21.01h-4.48l-2.99-9.26l-0.12,9.26h-4.44V0.43h4.78l2.75,9.54l0.06-9.54h4.44V21.01z"/>
	<path id="XMLID_11_" d="M508.42,0.43h6.48c2.04,0,3.49,0.31,4.41,0.9c0.74,0.49,1.26,1.14,1.42,1.79c0.1,0.5,0.16,1.76,0.16,3.46
		v9.78c0,2.01-0.34,3.06-1.18,3.7c-0.8,0.65-2,0.96-3.7,0.96h-7.59V0.43z M514.12,17.43c1.17,0.03,1.36-0.22,1.36-1.6V6.02
		c0-2.07-0.09-2.16-1.7-2.16v13.58H514.12z"/>
	<path id="XMLID_14_" d="M534.92,14.75c0,2.16-0.37,3.73-1.14,4.69c-1.02,1.3-2.81,2.01-5.09,2.01c-4.17,0-6.33-2.1-6.33-6.11V5.96
		c0-3.83,2.25-5.96,6.26-5.96c2.6,0,4.69,1.02,5.61,2.71c0.47,0.87,0.68,2.07,0.68,3.67V14.75z M527.7,16.2c0,1.3,0.21,1.7,0.92,1.7
		c0.62,0,0.86-0.43,0.86-1.54V5.21c0-1.39-0.18-1.79-0.86-1.79c-0.71,0-0.92,0.43-0.92,1.88V16.2z"/>
	<path id="XMLID_17_" d="M548.37,21.01h-4.48l-2.99-9.26l-0.12,9.26h-4.44V0.43h4.78l2.74,9.54l0.06-9.54h4.44V21.01z"/>
	<path id="XMLID_19_" d="M480.62,22.66v4.14h-3.74v3.79h3.21v3.95h-3.21v8.7h-5.4V22.66H480.62z"/>
	<path id="XMLID_21_" d="M491.35,22.66l2.77,20.58h-5.4l-0.28-3.67h-1.94l-0.31,3.67h-5.31l2.65-20.58H491.35z M486.51,35.9h1.82
		l-0.8-8.64L486.51,35.9z"/>
	<path id="XMLID_24_" d="M501.41,28.87v-1.82c0-0.93-0.25-1.3-0.86-1.3c-0.71,0-0.93,0.4-0.93,1.79c0,1.33,0.12,1.6,1.11,2.22
		c2.1,1.27,3.98,2.63,4.54,3.21c1.05,1.08,1.39,2.25,1.39,4.72c0,2.59-0.37,3.89-1.39,4.69c-1.08,0.9-2.81,1.39-4.69,1.39
		c-2.35,0-4.2-0.77-5.09-2.07c-0.55-0.8-0.83-2.04-0.83-3.52v-2.16h4.97v2.81c0,1.17,0.22,1.58,0.93,1.58
		c0.71,0,1.05-0.59,1.05-1.73c0-2.5-0.03-2.56-4.04-5.06c-2.26-1.42-2.9-2.69-2.9-5.71c0-2.07,0.31-3.15,1.17-4.01
		c1.05-1.02,2.81-1.6,4.88-1.6c2.25,0,4.13,0.74,5,1.98c0.41,0.62,0.62,1.36,0.62,2.34v2.25H501.41z"/>
	<path id="XMLID_26_" d="M520.2,43.24h-5.31l0.04-8.51h-1.82v8.51h-5.28V22.72h5.34l-0.04,7.34h1.82l-0.06-7.34h5.31V43.24z"/>
	<path id="XMLID_28_" d="M526.93,43.24h-5.4V22.66h5.4V43.24z"/>
	<path id="XMLID_30_" d="M540.88,36.98c0,2.16-0.37,3.73-1.14,4.69c-1.02,1.3-2.81,2-5.09,2c-4.17,0-6.32-2.1-6.32-6.11v-9.38
		c0-3.83,2.25-5.95,6.26-5.95c2.59,0,4.69,1.02,5.62,2.71c0.46,0.86,0.68,2.07,0.68,3.67V36.98z M533.65,38.43
		c0,1.3,0.22,1.7,0.93,1.7c0.62,0,0.86-0.43,0.86-1.54V27.45c0-1.39-0.19-1.79-0.86-1.79c-0.71,0-0.93,0.44-0.93,1.88V38.43z"/>
	<path id="XMLID_33_" d="M554.24,43.24h-4.47l-2.99-9.26l-0.13,9.26h-4.44V22.66h4.78l2.75,9.54l0.06-9.54h4.44V43.24z"/>
	<path id="XMLID_35_" d="M489.75,65.48h-6.73l-1.45-11.11l-1.66,11.11h-6.7l-2.22-20.58h5.19l1.01,13.7l1.64-13.7h5.56l1.23,13.91
		l1.45-13.91h5.15L489.75,65.48z"/>
	<path id="XMLID_37_" d="M502.19,44.9v4.16h-3.83v3.86h3.46v3.86h-3.46v4.6h4.04v4.1h-9.32V44.9H502.19z"/>
	<path id="XMLID_39_" d="M512.52,44.9v4.16h-3.83v3.86h3.45v3.86h-3.45v4.6h4.04v4.1h-9.32V44.9H512.52z"/>
	<path id="XMLID_41_" d="M519.06,44.93v7.59l2.44-7.62h5.06l-3.12,9.19l3.43,11.38h-5.62l-2.16-8.57l-0.06,8.57h-5.27V44.93H519.06z
		"/>
	<g id="XMLID_105_">
		<path id="XMLID_139_" d="M448.83,61.46c0.67,0,1.15,0.02,1.43,0.05c0.28,0.03,0.53,0.13,0.77,0.3c0.23,0.17,0.41,0.39,0.53,0.67
			c0.12,0.28,0.19,0.61,0.19,0.99c0,0.36-0.06,0.68-0.18,0.96c-0.12,0.29-0.29,0.51-0.53,0.69c-0.23,0.17-0.49,0.28-0.76,0.31
			c-0.28,0.03-0.76,0.05-1.45,0.05h-1.14c-0.67,0-1.15-0.02-1.43-0.05c-0.28-0.03-0.53-0.13-0.77-0.3
			c-0.23-0.17-0.41-0.39-0.53-0.67c-0.12-0.28-0.19-0.61-0.19-0.99c0-0.36,0.06-0.68,0.18-0.96c0.12-0.29,0.29-0.51,0.53-0.69
			c0.23-0.17,0.49-0.28,0.76-0.31c0.28-0.03,0.76-0.05,1.45-0.05H448.83z M446.64,63.19c-0.31,0-0.51,0.02-0.6,0.05
			c-0.09,0.03-0.13,0.11-0.13,0.21c0,0.09,0.04,0.16,0.11,0.21c0.07,0.05,0.28,0.07,0.62,0.07h3.12c0.39,0,0.63-0.02,0.72-0.05
			c0.09-0.03,0.14-0.11,0.14-0.22c0-0.12-0.05-0.19-0.16-0.23c-0.1-0.03-0.35-0.05-0.75-0.05H446.64z"/>
		<path id="XMLID_137_" d="M444.92,60.38v-2.94h1.34v1.21h1.27v-1.07h1.27v1.07h2.81v1.74H444.92z"/>
		<path id="XMLID_135_" d="M444.92,56.6v-2.94h1.34v1.21h1.27v-1.07h1.27v1.07h2.81v1.74H444.92z"/>
		<path id="XMLID_133_" d="M444.92,51.07h6.68v1.74h-6.68V51.07z"/>
		<path id="XMLID_131_" d="M447.83,45.89v1.74h-1.16c-0.34,0-0.55,0.02-0.63,0.06c-0.08,0.04-0.13,0.12-0.13,0.25
			c0,0.14,0.05,0.23,0.15,0.27c0.1,0.04,0.32,0.06,0.66,0.06h3.1c0.32,0,0.54-0.02,0.64-0.06c0.1-0.04,0.15-0.13,0.15-0.26
			c0-0.13-0.05-0.21-0.15-0.25c-0.1-0.04-0.33-0.06-0.7-0.06h-0.84v-1.74h0.26c0.69,0,1.18,0.05,1.47,0.15
			c0.29,0.1,0.54,0.31,0.76,0.65c0.22,0.33,0.33,0.75,0.33,1.24c0,0.51-0.09,0.93-0.28,1.26s-0.44,0.55-0.77,0.66
			c-0.33,0.11-0.82,0.16-1.47,0.16h-1.95c-0.48,0-0.84-0.02-1.08-0.05c-0.24-0.03-0.47-0.13-0.7-0.3c-0.22-0.16-0.4-0.39-0.53-0.68
			c-0.13-0.29-0.19-0.62-0.19-1c0-0.51,0.1-0.93,0.3-1.27c0.2-0.33,0.44-0.55,0.74-0.66c0.3-0.1,0.76-0.16,1.38-0.16H447.83z"/>
		<path id="XMLID_129_" d="M444.92,43.11h6.68v1.74h-6.68V43.11z"/>
		<path id="XMLID_126_" d="M444.92,38.98l6.68-0.99v1.78l-1.2,0.09v0.62l1.2,0.1v1.8l-6.68-0.89V38.98z M449.22,39.9
			c-0.76,0.09-1.69,0.18-2.81,0.26c1.28,0.18,2.22,0.29,2.81,0.33V39.9z"/>
		<path id="XMLID_124_" d="M444.92,35.53h5.35v-1.06h1.34v2.8h-6.68V35.53z"/>
		<path id="XMLID_121_" d="M444.92,31.72v-1.75c0-0.47,0.04-0.84,0.11-1.09c0.07-0.25,0.18-0.45,0.32-0.57
			c0.14-0.13,0.31-0.21,0.51-0.26c0.2-0.05,0.51-0.07,0.93-0.07h0.58c0.43,0,0.74,0.04,0.93,0.13c0.2,0.09,0.35,0.25,0.45,0.49
			c0.1,0.24,0.16,0.54,0.16,0.92v0.47h2.69v1.74H444.92z M446.06,29.98h1.7c0-0.05,0-0.09,0-0.13c0-0.16-0.04-0.27-0.12-0.33
			c-0.08-0.06-0.24-0.09-0.49-0.09h-0.55c-0.23,0-0.38,0.04-0.45,0.11C446.1,29.61,446.06,29.75,446.06,29.98z"/>
		<path id="XMLID_118_" d="M444.92,24.26l6.68-0.99v1.78l-1.2,0.09v0.62l1.2,0.1v1.8l-6.68-0.89V24.26z M449.22,25.18
			c-0.76,0.09-1.69,0.18-2.81,0.26c1.28,0.18,2.22,0.29,2.81,0.33V25.18z"/>
		<path id="XMLID_79_" d="M444.92,22.55v-1.23c0-0.82,0.03-1.38,0.1-1.67c0.06-0.29,0.22-0.53,0.49-0.71
			c0.26-0.18,0.67-0.27,1.24-0.27c0.52,0,0.87,0.06,1.05,0.19c0.18,0.13,0.29,0.38,0.32,0.76c0.09-0.34,0.2-0.58,0.34-0.69
			c0.14-0.12,0.27-0.19,0.39-0.22c0.12-0.03,0.45-0.04,0.99-0.04h1.76v1.61h-2.22c-0.36,0-0.58,0.03-0.66,0.08
			c-0.09,0.06-0.13,0.2-0.13,0.44h3.01v1.74H444.92z M446.06,20.81h1.49c0-0.2-0.03-0.33-0.08-0.41c-0.05-0.08-0.23-0.12-0.52-0.12
			h-0.37c-0.21,0-0.35,0.04-0.42,0.11C446.09,20.47,446.06,20.61,446.06,20.81z"/>
		<path id="XMLID_50_" d="M444.92,14.07h1.34v1.03h5.35v1.74h-5.35v1.03h-1.34V14.07z"/>
		<path id="XMLID_48_" d="M444.92,9.37h6.68v1.52l-3.04,0.9h3.04v1.45h-6.68V11.8l3.01-0.97h-3.01V9.37z"/>
		<path id="XMLID_46_" d="M444.92,8.25v-2.9h1.34v1.16h1.27V5.42h1.27v1.09h1.47V5.23h1.34v3.01H444.92z"/>
		<path id="XMLID_106_" d="M444.92,4.31V3.08c0-0.82,0.03-1.38,0.1-1.67c0.06-0.29,0.22-0.53,0.49-0.71
			c0.26-0.18,0.67-0.27,1.24-0.27c0.52,0,0.87,0.06,1.05,0.19c0.18,0.13,0.29,0.38,0.32,0.76c0.09-0.34,0.2-0.58,0.34-0.69
			c0.14-0.12,0.27-0.19,0.39-0.22c0.12-0.03,0.45-0.04,0.99-0.04h1.76v1.61h-2.22c-0.36,0-0.58,0.03-0.66,0.08
			c-0.09,0.06-0.13,0.2-0.13,0.44h3.01v1.74H444.92z M446.06,2.57h1.49c0-0.2-0.03-0.33-0.08-0.41c-0.05-0.08-0.23-0.12-0.52-0.12
			h-0.37c-0.21,0-0.35,0.04-0.42,0.11C446.09,2.23,446.06,2.37,446.06,2.57z"/>
	</g>
</g>
</svg>
